<svg version="1.1" id="Layer_1" xmlns="http://www.w3.org/2000/svg" xmlns:xlink="http://www.w3.org/1999/xlink" x="0px" y="0px"
	 width="100%" viewBox="0 0 320 320" enable-background="new 0 0 320 320" xml:space="preserve">
<path fill="#000000" opacity="1.000000" stroke="none" 
	d="
M154.000000,321.000000 
	C102.666679,321.000000 51.833351,321.000000 1.000021,321.000000 
	C1.000014,214.333359 1.000014,107.666725 1.000007,1.000063 
	C107.666618,1.000042 214.333237,1.000042 320.999878,1.000021 
	C320.999939,107.666595 320.999939,214.333191 320.999969,320.999878 
	C265.500000,321.000000 210.000000,321.000000 154.000000,321.000000 
M95.004288,231.594940 
	C110.713013,232.771255 126.091324,231.874802 139.635132,222.675430 
	C154.366852,212.669205 158.538177,197.939514 156.844330,181.109055 
	C155.347198,166.233047 146.309128,157.099350 132.933868,151.871643 
	C127.851601,149.885254 122.509521,148.541885 117.245804,147.046417 
	C108.797989,144.646301 100.120461,142.896118 91.909561,139.868896 
	C84.856499,137.268555 81.694275,131.250732 82.127693,124.554970 
	C82.574867,117.646713 86.712418,111.928352 93.958824,110.099892 
	C114.075409,105.023956 125.912178,111.767372 128.991501,126.571243 
	C137.565628,126.571243 146.102127,126.571243 154.779556,126.571243 
	C153.762894,112.520775 148.473572,100.986557 136.587570,93.961739 
	C115.519775,81.510345 93.661484,81.393776 72.587769,93.677544 
	C58.780960,101.725479 53.941021,115.254539 54.667549,130.858673 
	C55.372028,145.989380 63.001648,156.636703 76.527740,162.868118 
	C82.215256,165.488342 88.390266,167.108566 94.429382,168.893372 
	C102.859497,171.384796 111.585304,173.029266 119.786293,176.099915 
	C128.232788,179.262451 131.120102,185.817932 129.195847,194.123947 
	C127.595497,201.031815 122.763016,204.838486 116.416206,206.926987 
	C98.604118,212.788208 84.173737,206.358078 76.994110,189.606277 
	C68.537086,189.606277 60.144287,189.606277 51.424561,189.606277 
	C52.313183,205.527191 58.843449,217.759903 72.845955,224.762238 
	C79.407555,228.043594 86.995407,229.272751 95.004288,231.594940 
M221.499649,88.017365 
	C208.050125,88.017365 194.600601,88.017365 181.054123,88.017365 
	C181.054123,135.255875 181.054123,181.961105 181.054123,228.749512 
	C190.300644,228.749512 199.218750,228.749512 208.792908,228.749512 
	C208.792908,213.961243 208.792908,199.414383 208.792908,184.609909 
	C216.268906,184.609909 223.089752,184.725128 229.905624,184.590012 
	C259.878662,183.995850 277.460144,169.408203 280.387390,141.593735 
	C282.751434,119.130676 273.313873,95.849228 246.314911,89.695419 
	C238.647232,87.947746 230.452393,88.512878 221.499649,88.017365 
z"/>
<path fill="#FBA300" opacity="1.000000" stroke="none" 
	d="
M94.561234,231.513458 
	C86.995407,229.272751 79.407555,228.043594 72.845955,224.762238 
	C58.843449,217.759903 52.313183,205.527191 51.424561,189.606277 
	C60.144287,189.606277 68.537086,189.606277 76.994110,189.606277 
	C84.173737,206.358078 98.604118,212.788208 116.416206,206.926987 
	C122.763016,204.838486 127.595497,201.031815 129.195847,194.123947 
	C131.120102,185.817932 128.232788,179.262451 119.786293,176.099915 
	C111.585304,173.029266 102.859497,171.384796 94.429382,168.893372 
	C88.390266,167.108566 82.215256,165.488342 76.527740,162.868118 
	C63.001648,156.636703 55.372028,145.989380 54.667549,130.858673 
	C53.941021,115.254539 58.780960,101.725479 72.587769,93.677544 
	C93.661484,81.393776 115.519775,81.510345 136.587570,93.961739 
	C148.473572,100.986557 153.762894,112.520775 154.779556,126.571243 
	C146.102127,126.571243 137.565628,126.571243 128.991501,126.571243 
	C125.912178,111.767372 114.075409,105.023956 93.958824,110.099892 
	C86.712418,111.928352 82.574867,117.646713 82.127693,124.554970 
	C81.694275,131.250732 84.856499,137.268555 91.909561,139.868896 
	C100.120461,142.896118 108.797989,144.646301 117.245804,147.046417 
	C122.509521,148.541885 127.851601,149.885254 132.933868,151.871643 
	C146.309128,157.099350 155.347198,166.233047 156.844330,181.109055 
	C158.538177,197.939514 154.366852,212.669205 139.635132,222.675430 
	C126.091324,231.874802 110.713013,232.771255 94.561234,231.513458 
z"/>
<path fill="#FCA300" opacity="1.000000" stroke="none" 
	d="
M221.999481,88.017365 
	C230.452393,88.512878 238.647232,87.947746 246.314911,89.695419 
	C273.313873,95.849228 282.751434,119.130676 280.387390,141.593735 
	C277.460144,169.408203 259.878662,183.995850 229.905624,184.590012 
	C223.089752,184.725128 216.268906,184.609909 208.792908,184.609909 
	C208.792908,199.414383 208.792908,213.961243 208.792908,228.749512 
	C199.218750,228.749512 190.300644,228.749512 181.054123,228.749512 
	C181.054123,181.961105 181.054123,135.255875 181.054123,88.017365 
	C194.600601,88.017365 208.050125,88.017365 221.999481,88.017365 
M234.442123,160.285782 
	C243.532318,158.628448 249.823639,153.529572 251.393646,144.356888 
	C252.325562,138.912186 252.182266,133.054443 251.292938,127.582230 
	C250.047119,119.916489 245.080582,114.262772 237.409149,112.933228 
	C228.054672,111.311989 218.459732,111.078186 208.963470,110.243843 
	C208.963470,128.005585 208.963470,144.387314 208.963470,160.476700 
	C217.406052,160.476700 225.504242,160.476700 234.442123,160.285782 
z"/>
<path fill="#010200" opacity="1.000000" stroke="none" 
	d="
M234.022278,160.381241 
	C225.504242,160.476700 217.406052,160.476700 208.963470,160.476700 
	C208.963470,144.387314 208.963470,128.005585 208.963470,110.243843 
	C218.459732,111.078186 228.054672,111.311989 237.409149,112.933228 
	C245.080582,114.262772 250.047119,119.916489 251.292938,127.582230 
	C252.182266,133.054443 252.325562,138.912186 251.393646,144.356888 
	C249.823639,153.529572 243.532318,158.628448 234.022278,160.381241 
z"/>
</svg>