<?xml version="1.0" standalone="no"?>
<!DOCTYPE svg PUBLIC "-//W3C//DTD SVG 20010904//EN"
 "http://www.w3.org/TR/2001/REC-SVG-20010904/DTD/svg10.dtd">
<svg version="1.0" xmlns="http://www.w3.org/2000/svg"
 width="512.000000pt" height="512.000000pt" viewBox="0 0 512.000000 512.000000"
 preserveAspectRatio="xMidYMid meet">

<g transform="translate(0.000000,512.000000) scale(0.100000,-0.100000)"
fill="#000000" stroke="none">
<path d="M2449 5116 c-2 -3 -61 -10 -129 -16 -157 -13 -265 -33 -465 -85 -240
-62 -581 -231 -812 -401 -196 -145 -392 -341 -537 -537 -116 -157 -224 -347
-291 -514 -20 -48 -40 -97 -45 -108 -25 -56 -81 -249 -105 -365 -8 -41 -20
-95 -25 -120 -15 -71 -34 -295 -34 -405 0 -188 21 -359 71 -580 111 -495 394
-975 772 -1313 325 -290 673 -474 1111 -588 325 -84 823 -89 1150 -12 439 104
799 287 1131 574 282 245 518 570 663 914 80 189 116 303 156 503 6 26 14 68
20 95 15 70 34 294 35 397 0 103 -22 363 -35 415 -5 19 -16 73 -25 120 -23
118 -68 276 -105 365 -111 271 -202 440 -337 623 -130 176 -319 370 -483 497
-53 40 -248 175 -254 175 -2 0 -42 23 -90 50 -48 28 -89 50 -90 50 -2 0 -42
17 -88 39 -45 21 -126 53 -178 71 -52 17 -104 36 -115 41 -57 25 -298 74 -435
89 -52 6 -129 15 -170 20 -75 10 -253 14 -261 6z m-568 -1370 c100 -24 132
-36 219 -79 145 -71 262 -205 318 -362 15 -42 32 -130 32 -165 l0 -30 -203 0
-204 0 -12 53 c-24 99 -96 174 -208 218 -48 18 -78 22 -168 22 -90 0 -120 -4
-168 -22 -153 -60 -224 -184 -184 -322 22 -74 71 -128 151 -168 61 -30 111
-44 416 -116 63 -15 152 -41 196 -57 164 -59 312 -175 364 -285 51 -109 55
-131 55 -298 -1 -148 -3 -166 -29 -239 -42 -124 -110 -216 -227 -310 -43 -35
-172 -94 -253 -115 -124 -33 -239 -44 -381 -38 -268 12 -466 86 -604 228 -97
100 -166 248 -173 374 l-3 60 205 0 205 0 6 -35 c6 -40 38 -105 66 -136 142
-161 525 -177 678 -29 58 57 75 94 82 176 7 88 -12 143 -70 196 -40 37 -176
103 -211 103 -8 0 -25 4 -38 9 -13 5 -57 17 -98 26 -263 57 -378 95 -495 164
-200 117 -301 323 -281 576 24 320 246 549 586 605 41 6 82 13 90 15 34 9 289
-6 341 -19z m2089 -60 c200 -66 334 -180 415 -351 51 -108 72 -188 80 -315 17
-251 -51 -456 -200 -605 -177 -177 -333 -225 -731 -225 -184 0 -213 -2 -218
-16 -3 -9 -6 -168 -6 -355 l0 -339 -215 0 -215 0 0 1121 0 1120 503 -3 502 -4
85 -28z"/>
<path d="M3317 3353 c-4 -3 -7 -183 -7 -399 0 -348 2 -393 16 -398 26 -10 316
-7 380 4 217 39 316 161 316 394 0 226 -80 342 -269 391 -59 15 -422 22 -436
8z"/>
</g>
</svg>
